<svg width="21" height="15" viewBox="0 0 21 15" fill="none" xmlns="http://www.w3.org/2000/svg">
<path d="M16.625 5.86536C16.0583 2.99036 13.5333 0.832031 10.5 0.832031C8.09167 0.832031 6 2.1987 4.95833 4.1987C2.45 4.46536 0.5 6.59036 0.5 9.16536C0.5 11.9237 2.74167 14.1654 5.5 14.1654H16.3333C18.6333 14.1654 20.5 12.2987 20.5 9.9987C20.5 7.7987 18.7917 6.01536 16.625 5.86536ZM16.3333 12.4987H5.5C3.65833 12.4987 2.16667 11.007 2.16667 9.16536C2.16667 7.45703 3.44167 6.03203 5.13333 5.85703L6.025 5.76536L6.44167 4.9737C7.23333 3.4487 8.78333 2.4987 10.5 2.4987C12.6833 2.4987 14.5667 4.0487 14.9917 6.19036L15.2417 7.44036L16.5167 7.53203C17.8167 7.61536 18.8333 8.70703 18.8333 9.9987C18.8333 11.3737 17.7083 12.4987 16.3333 12.4987ZM7.16667 8.33203H9.29167V10.832H11.7083V8.33203H13.8333L10.5 4.9987L7.16667 8.33203Z" fill="#178C5F"/>
</svg>