<svg width="14" height="13" viewBox="0 0 14 13" fill="none" xmlns="http://www.w3.org/2000/svg">
<path d="M12.334 1.66713H10.2207L9.00065 0.333801H5.00065L3.78065 1.66713H1.66732C0.933984 1.66713 0.333984 2.26713 0.333984 3.00047V11.0005C0.333984 11.7338 0.933984 12.3338 1.66732 12.3338H12.334C13.0673 12.3338 13.6673 11.7338 13.6673 11.0005V3.00047C13.6673 2.26713 13.0673 1.66713 12.334 1.66713ZM12.334 11.0005H1.66732V3.00047H4.36732L5.58732 1.66713H8.41398L9.63398 3.00047H12.334V11.0005ZM7.00065 3.66713C5.16065 3.66713 3.66732 5.16047 3.66732 7.00047C3.66732 8.84047 5.16065 10.3338 7.00065 10.3338C8.84065 10.3338 10.334 8.84047 10.334 7.00047C10.334 5.16047 8.84065 3.66713 7.00065 3.66713ZM7.00065 9.00047C5.90065 9.00047 5.00065 8.10047 5.00065 7.00047C5.00065 5.90047 5.90065 5.00047 7.00065 5.00047C8.10065 5.00047 9.00065 5.90047 9.00065 7.00047C9.00065 8.10047 8.10065 9.00047 7.00065 9.00047Z" fill="white"/>
</svg>
