<svg width="1em" viewBox="0 0 24 24" fill="currentColor" xmlns="http://www.w3.org/2000/svg">
<path fill-rule="evenodd" clip-rule="evenodd" d="M12 16.4999C11.4477 16.4999 11 16.9476 11 17.4999C11 18.0522 11.4477 18.4999 12 18.4999C12.5523 18.4999 13 18.0522 13 17.4999C13 16.9476 12.5523 16.4999 12 16.4999ZM10 17.4999C10 16.3953 10.8954 15.4999 12 15.4999C13.1046 15.4999 14 16.3953 14 17.4999C14 18.6044 13.1046 19.4999 12 19.4999C10.8954 19.4999 10 18.6044 10 17.4999ZM12 5.5C11.4477 5.5 11 5.94772 11 6.5C11 7.05228 11.4477 7.5 12 7.5C12.5523 7.5 13 7.05228 13 6.5C13 5.94772 12.5523 5.5 12 5.5ZM10 6.5C10 5.39543 10.8954 4.5 12 4.5C13.1046 4.5 14 5.39543 14 6.5C14 7.60457 13.1046 8.5 12 8.5C10.8954 8.5 10 7.60457 10 6.5ZM12 11.0001C11.4477 11.0001 11 11.4478 11 12.0001C11 12.5524 11.4477 13.0001 12 13.0001C12.5523 13.0001 13 12.5524 13 12.0001C13 11.4478 12.5523 11.0001 12 11.0001ZM10 12.0001C10 10.8956 10.8954 10.0001 12 10.0001C13.1046 10.0001 14 10.8956 14 12.0001C14 13.1047 13.1046 14.0001 12 14.0001C10.8954 14.0001 10 13.1047 10 12.0001Z" fill="currentColor"/>
</svg>
