<svg width="24" height="24" viewBox="0 0 24 24" fill="none" xmlns="http://www.w3.org/2000/svg">
<path fill-rule="evenodd" clip-rule="evenodd" d="M12.0513 16.2302L12.0663 16.2339L15.1914 17.103C15.2851 17.129 15.3554 17.2063 15.3731 17.3013L15.375 17.3128C15.3931 17.4431 15.8066 20.5227 14.746 22.0547C13.6866 23.5848 12.1239 23.977 12.0578 23.9929C12.0382 23.9976 12.0182 24 11.9982 24C11.9781 24 11.9581 23.9977 11.9385 23.9929L11.9109 23.9858C11.6868 23.9258 10.2461 23.493 9.25034 22.0547C8.18972 20.5227 8.60323 17.4431 8.62135 17.3128C8.63478 17.2163 8.70198 17.1364 8.79381 17.1063L8.80495 17.103L11.9301 16.2339C11.9697 16.2228 12.0113 16.2216 12.0513 16.2302ZM12 11.9222C15.9072 11.9222 19.0931 14.4953 19.2509 17.719L19.2547 17.8169C19.2562 17.8677 19.257 22.8077 19.257 22.8077H17.7016L17.7003 17.8632C17.6298 15.4941 15.1525 13.4773 12 13.4773C8.85558 13.4773 6.38128 15.4844 6.30019 17.8469L6.2985 22.8077H4.74301L4.74603 17.7935C4.85788 14.5351 8.06278 11.9222 12 11.9222ZM12 20.1122L10.1756 20.1123C10.2524 20.5779 10.3737 20.9453 10.5289 21.1695C10.8301 21.6045 11.2141 21.9406 11.6466 22.1898C11.753 22.2512 11.8579 22.3046 11.9594 22.3504L11.9981 22.3675L12 22.3667L12 20.1122ZM13.9035 18.3588L12 17.8295L12 20.1122L13.8207 20.1122L13.8255 20.0828C13.8717 19.7934 13.9008 19.4675 13.9105 19.1153C13.9171 18.8752 13.9148 18.6343 13.9052 18.398L13.9035 18.3588ZM12 0C15.0059 0 17.4427 2.4368 17.4427 5.44274C17.4427 8.44869 15.0059 10.8855 12 10.8855C8.99406 10.8855 6.55726 8.44869 6.55726 5.44274C6.55726 2.4368 8.99406 0 12 0ZM12 1.55507C9.8529 1.55507 8.11233 3.29564 8.11233 5.44274C8.11233 7.58985 9.8529 9.33042 12 9.33042C14.1471 9.33042 15.8877 7.58985 15.8877 5.44274C15.8877 3.29564 14.1471 1.55507 12 1.55507Z" fill="#324234"/>
</svg>