<svg width="26" height="26" viewBox="0 0 26 26" fill="none" xmlns="http://www.w3.org/2000/svg">
<path fill-rule="evenodd" clip-rule="evenodd" d="M15.2242 15.9861H10.8339C10.3656 15.9861 10.0729 15.6349 10.0729 15.2252C10.0729 14.8154 10.3656 14.5227 10.8339 14.5227H15.2242C15.6339 14.5227 15.9851 14.8154 15.9851 15.2252C15.9851 15.6349 15.6339 15.9861 15.2242 15.9861ZM10.8339 10.0154H12.9998C13.4095 10.0154 13.7607 10.3666 13.7607 10.7764C13.7607 11.1861 13.4095 11.5374 12.9998 11.5374H10.8339C10.3656 11.5374 10.0729 11.1861 10.0729 10.7764C10.0729 10.3666 10.3656 10.0154 10.8339 10.0154ZM19.2046 11.9471L19.0876 11.7715L18.912 11.5959C18.6778 11.4203 17.5071 11.5959 17.2144 11.3618C16.9803 11.1276 16.9217 10.7764 16.8632 10.3081C16.7461 9.31297 16.6876 9.25443 16.512 8.96175C15.9851 7.79102 14.5217 6.97151 13.5266 6.7959H10.7754C8.60952 6.7959 6.85342 8.61053 6.85342 10.7178V12.6496V15.2837C6.85342 17.4496 8.60952 19.2057 10.7754 19.2057H15.2827C17.4485 19.2057 19.2046 17.4496 19.2046 15.2837V12.7081V12.1227V11.9471Z" fill="#324234"/>
<path fill-rule="evenodd" clip-rule="evenodd" d="M25 13.0585C24.9415 19.6732 19.6146 25 13 25C6.38537 25 1 19.6146 1 13C1 6.38537 6.38537 1 13 1H25V13.0585ZM13 2.2878C18.9122 2.2878 23.7122 7.0878 23.7122 13V13.0585C23.7122 18.9707 18.9122 23.7122 13 23.7122C7.0878 23.7122 2.2878 18.9122 2.2878 13C2.2878 7.0878 7.0878 2.2878 13 2.2878Z" fill="#324234" stroke="#324234" stroke-width="0.00694171"/>
</svg>