<svg width="56" height="56" viewBox="0 0 56 56" fill="none" xmlns="http://www.w3.org/2000/svg">
<path fill-rule="evenodd" clip-rule="evenodd" d="M32.7304 6.24392L34.0169 4.95746C35.0184 3.95585 35.8824 3.09178 36.6523 2.43824C37.4648 1.74846 38.3474 1.13685 39.4326 0.784241C41.0516 0.258199 42.7956 0.258199 44.4146 0.784241C45.4998 1.13685 46.3824 1.74846 47.1949 2.43824C47.9648 3.09179 48.8288 3.95587 49.8303 4.9575L51.1167 6.24388C52.1183 7.24544 52.9824 8.10946 53.636 8.8793C54.3258 9.69182 54.9374 10.5744 55.29 11.6597C55.816 13.2786 55.816 15.0226 55.29 16.6416C54.9374 17.7268 54.3258 18.6094 53.636 19.422C52.9824 20.1918 52.1184 21.0558 51.1168 22.0573L51.1167 22.0574L49.8303 23.3438L49.8303 23.3438L49.83 23.3441C48.8286 24.3456 47.9647 25.2095 47.1949 25.863C46.3824 26.5528 45.4998 27.1644 44.4146 27.517C42.7956 28.0431 41.0516 28.0431 39.4326 27.517C38.3474 27.1644 37.4648 26.5528 36.6523 25.863C35.8824 25.2095 35.0184 24.3454 34.0169 23.3438L32.7304 22.0573C31.7288 21.0558 30.8647 20.1918 30.2112 19.422C29.5214 18.6094 28.9098 17.7268 28.5572 16.6416C28.0312 15.0226 28.0312 13.2786 28.5572 11.6597C28.9098 10.5744 29.5214 9.69182 30.2112 8.8793C30.8647 8.10949 31.7288 7.2455 32.7303 6.24399L32.7304 6.24397L32.7304 6.24392ZM34.308 12.3572C33.834 12.9155 33.7142 13.1785 33.6682 13.3203C33.4928 13.86 33.4928 14.4413 33.6682 14.981C33.7142 15.1228 33.834 15.3857 34.308 15.944C34.8023 16.5264 35.5082 17.2352 36.6036 18.3306L37.7436 19.4706C38.8391 20.566 39.5479 21.2719 40.1302 21.7662C40.6885 22.2402 40.9515 22.36 41.0933 22.4061C41.6329 22.5814 42.2143 22.5814 42.7539 22.4061C42.8957 22.36 43.1587 22.2402 43.717 21.7662C44.2993 21.2719 45.0081 20.566 46.1036 19.4706L47.2435 18.3306C48.339 17.2352 49.0448 16.5264 49.5392 15.944C50.0132 15.3857 50.1329 15.1228 50.179 14.981C50.3544 14.4413 50.3544 13.86 50.179 13.3203C50.1329 13.1785 50.0132 12.9155 49.5392 12.3572C49.0448 11.7749 48.339 11.0661 47.2435 9.97066L46.1036 8.83067C45.0081 7.73522 44.2993 7.02938 43.717 6.53503C43.1587 6.06105 42.8957 5.94127 42.7539 5.89519C42.2143 5.71985 41.6329 5.71985 41.0933 5.89519C40.9515 5.94127 40.6885 6.06105 40.1302 6.53503C39.5479 7.02938 38.8391 7.73522 37.7436 8.83067L36.6036 9.97066C35.5082 11.0661 34.8023 11.7749 34.308 12.3572ZM13.2764 31.616H11.4571C10.0406 31.616 8.81867 31.616 7.8122 31.6982C6.74991 31.785 5.69334 31.9766 4.67664 32.4946C3.15987 33.2675 1.9267 34.5006 1.15387 36.0174C0.635832 37.0341 0.444207 38.0907 0.357415 39.153C0.275185 40.1594 0.275225 41.3813 0.275271 42.7977V42.7978V44.6171V44.6173C0.275225 46.0336 0.275185 47.2556 0.357415 48.262C0.444207 49.3243 0.635832 50.3809 1.15387 51.3976C1.9267 52.9143 3.15987 54.1475 4.67664 54.9203C5.69334 55.4384 6.74991 55.63 7.8122 55.7168C8.81868 55.799 10.0406 55.799 11.4571 55.7989H13.2763C14.6928 55.799 15.9147 55.799 16.9212 55.7168C17.9835 55.63 19.0401 55.4384 20.0568 54.9203C21.5736 54.1475 22.8067 52.9143 23.5796 51.3976C24.0976 50.3809 24.2892 49.3243 24.376 48.262C24.4582 47.2555 24.4582 46.0336 24.4582 44.6171V42.7979C24.4582 41.3814 24.4582 40.1595 24.376 39.153C24.2892 38.0907 24.0976 37.0341 23.5796 36.0174C22.8067 34.5006 21.5736 33.2675 20.0568 32.4946C19.0401 31.9766 17.9835 31.785 16.9212 31.6982C15.9148 31.616 14.6928 31.616 13.2764 31.616ZM7.11637 37.2829C7.24922 37.2152 7.51985 37.1139 8.24981 37.0543C9.01113 36.9921 10.0114 36.99 11.5606 36.99H13.1728C14.722 36.99 15.7223 36.9921 16.4836 37.0543C17.2136 37.1139 17.4842 37.2152 17.6171 37.2829C18.1227 37.5405 18.5337 37.9515 18.7913 38.4571C18.859 38.59 18.9602 38.8606 19.0199 39.5906C19.0821 40.3519 19.0842 41.3522 19.0842 42.9014V44.5136C19.0842 46.0628 19.0821 47.0631 19.0199 47.8244C18.9602 48.5543 18.859 48.825 18.7913 48.9578C18.5337 49.4634 18.1227 49.8745 17.6171 50.1321C17.4842 50.1998 17.2136 50.301 16.4836 50.3607C15.7223 50.4229 14.722 50.425 13.1728 50.425H11.5606C10.0114 50.425 9.01113 50.4229 8.24981 50.3607C7.51985 50.301 7.24922 50.1998 7.11637 50.1321C6.61078 49.8745 6.19972 49.4634 5.94211 48.9578C5.87442 48.825 5.77318 48.5543 5.71354 47.8244C5.65134 47.0631 5.64925 46.0628 5.64925 44.5136V42.9014C5.64925 41.3522 5.65134 40.3519 5.71354 39.5906C5.77318 38.8606 5.87442 38.59 5.94211 38.4571C6.19972 37.9515 6.61078 37.5405 7.11637 37.2829ZM42.8332 31.616H41.0139C39.5975 31.616 38.3755 31.616 37.369 31.6982C36.3068 31.785 35.2502 31.9766 34.2335 32.4946C32.7167 33.2675 31.4835 34.5006 30.7107 36.0174C30.1927 37.0341 30.0011 38.0907 29.9143 39.153C29.832 40.1594 29.8321 41.3814 29.8321 42.7978V44.6171C29.8321 46.0336 29.832 47.2555 29.9143 48.262C30.0011 49.3243 30.1927 50.3809 30.7107 51.3976C31.4835 52.9143 32.7167 54.1475 34.2335 54.9203C35.2502 55.4384 36.3068 55.63 37.369 55.7168C38.3755 55.799 39.5975 55.799 41.014 55.7989H42.8332C44.2496 55.799 45.4716 55.799 46.4781 55.7168C47.5404 55.63 48.5969 55.4384 49.6136 54.9203C51.1304 54.1475 52.3636 52.9143 53.1364 51.3976C53.6544 50.3809 53.8461 49.3243 53.9329 48.262C54.0151 47.2556 54.015 46.0338 54.015 44.6175V44.6175V44.6174V44.6171V42.7979V42.7976V42.7975V42.7974C54.015 41.3812 54.0151 40.1593 53.9329 39.153C53.8461 38.0907 53.6544 37.0341 53.1364 36.0174C52.3636 34.5006 51.1304 33.2675 49.6136 32.4946C48.5969 31.9766 47.5404 31.785 46.4781 31.6982C45.4716 31.616 44.2497 31.616 42.8332 31.616ZM36.6732 37.2829C36.8061 37.2152 37.0767 37.1139 37.8067 37.0543C38.568 36.9921 39.5683 36.99 41.1175 36.99H42.7297C44.2789 36.99 45.2791 36.9921 46.0405 37.0543C46.7704 37.1139 47.0411 37.2152 47.1739 37.2829C47.6795 37.5405 48.0906 37.9515 48.3482 38.4571C48.4159 38.59 48.5171 38.8606 48.5767 39.5906C48.6389 40.3519 48.641 41.3522 48.641 42.9014V44.5136C48.641 46.0628 48.6389 47.0631 48.5767 47.8244C48.5171 48.5543 48.4159 48.825 48.3482 48.9578C48.0906 49.4634 47.6795 49.8745 47.1739 50.1321C47.0411 50.1998 46.7704 50.301 46.0405 50.3607C45.2791 50.4229 44.2789 50.425 42.7297 50.425H41.1175C39.5683 50.425 38.568 50.4229 37.8067 50.3607C37.0767 50.301 36.8061 50.1998 36.6732 50.1321C36.1676 49.8745 35.7566 49.4634 35.499 48.9578C35.4313 48.825 35.33 48.5543 35.2704 47.8244C35.2082 47.0631 35.2061 46.0628 35.2061 44.5136V42.9014C35.2061 41.3522 35.2082 40.3519 35.2704 39.5906C35.33 38.8606 35.4313 38.59 35.499 38.4571C35.7566 37.9515 36.1676 37.5405 36.6732 37.2829ZM13.2764 2.05919H11.4571H11.457C10.0406 2.05914 8.81866 2.0591 7.8122 2.14133C6.74991 2.22813 5.69334 2.41975 4.67664 2.93779C3.15987 3.71062 1.9267 4.94379 1.15387 6.46055C0.635832 7.47725 0.444207 8.53383 0.357415 9.59612C0.275185 10.6026 0.275225 11.8245 0.275271 13.2409V13.241V15.0603V15.0604C0.275225 16.4768 0.275185 17.6987 0.357415 18.7051C0.444207 19.7674 0.635832 20.824 1.15387 21.8407C1.9267 23.3575 3.15987 24.5906 4.67664 25.3635C5.69334 25.8815 6.74991 26.0731 7.8122 26.1599C8.81868 26.2422 10.0406 26.2421 11.4571 26.2421H13.2763C14.6928 26.2421 15.9147 26.2422 16.9212 26.1599C17.9835 26.0731 19.0401 25.8815 20.0568 25.3635C21.5736 24.5906 22.8067 23.3575 23.5796 21.8407C24.0976 20.824 24.2892 19.7674 24.376 18.7051C24.4582 17.6987 24.4582 16.4767 24.4582 15.0602V13.241C24.4582 11.8246 24.4582 10.6026 24.376 9.59612C24.2892 8.53383 24.0976 7.47725 23.5796 6.46055C22.8067 4.94379 21.5736 3.71062 20.0568 2.93779C19.0401 2.41975 17.9835 2.22813 16.9212 2.14133C15.9148 2.0591 14.6928 2.05914 13.2764 2.05919H13.2764ZM7.11637 7.72603C7.24922 7.65834 7.51985 7.5571 8.24981 7.49746C9.01113 7.43526 10.0114 7.43317 11.5606 7.43317H13.1728C14.722 7.43317 15.7223 7.43526 16.4836 7.49746C17.2136 7.5571 17.4842 7.65834 17.6171 7.72603C18.1227 7.98364 18.5337 8.3947 18.7913 8.90029C18.859 9.03314 18.9602 9.30377 19.0199 10.0337C19.0821 10.7951 19.0842 11.7953 19.0842 13.3445V14.9567C19.0842 16.5059 19.0821 17.5062 19.0199 18.2675C18.9602 18.9975 18.859 19.2681 18.7913 19.401C18.5337 19.9066 18.1227 20.3176 17.6171 20.5752C17.4842 20.6429 17.2136 20.7442 16.4836 20.8038C15.7223 20.866 14.722 20.8681 13.1728 20.8681H11.5606C10.0114 20.8681 9.01113 20.866 8.24981 20.8038C7.51985 20.7442 7.24922 20.6429 7.11637 20.5752C6.61078 20.3176 6.19972 19.9066 5.94211 19.401C5.87442 19.2681 5.77318 18.9975 5.71354 18.2675C5.65134 17.5062 5.64925 16.5059 5.64925 14.9567V13.3445C5.64925 11.7953 5.65134 10.7951 5.71354 10.0337C5.77318 9.30377 5.87442 9.03314 5.94211 8.90029C6.19972 8.3947 6.61078 7.98364 7.11637 7.72603Z" fill="#324234"/>
</svg>
