<svg width="24" height="24" viewBox="0 0 24 24" fill="none" xmlns="http://www.w3.org/2000/svg">
<path d="M2.75446 5.27129H12.4981V2.36236C12.4981 2.03665 12.762 1.77246 13.0877 1.77246H21.2456C21.5713 1.77246 21.8355 2.03665 21.8355 2.36236V21.0479H23.2097C23.9853 21.0479 23.9853 22.2274 23.2097 22.2274C15.7367 22.2274 8.26336 22.2274 0.790323 22.2274C0.0147574 22.2274 0.0147574 21.0479 0.790323 21.0479H2.16485V5.8609C2.16485 5.53548 2.42876 5.27129 2.75446 5.27129V5.27129ZM8.77615 21.0479V18.7283H7.06599V21.0479H8.77615ZM5.88649 21.0479V18.1384C5.88649 17.813 6.1504 17.5488 6.4761 17.5488H9.36604C9.69175 17.5488 9.95565 17.813 9.95565 18.1384V21.0479H12.4981V6.4508H3.34436V21.0479H5.88649ZM15.3974 4.2202H18.9359C19.2616 4.2202 19.5258 4.4841 19.5258 4.80981V15.4256C19.5258 15.7513 19.2616 16.0152 18.9359 16.0152H15.3974C15.0717 16.0152 14.8075 15.7513 14.8075 15.4256V4.80981C14.8075 4.4841 15.0717 4.2202 15.3974 4.2202V4.2202ZM18.3463 5.39942H15.987V14.8357H18.3463V5.39942V5.39942ZM5.10497 11.3857H7.05125C7.37696 11.3857 7.64086 11.6499 7.64086 11.9756V13.9216C7.64086 14.2473 7.37696 14.5115 7.05125 14.5115H5.10497C4.77927 14.5115 4.51508 14.2473 4.51508 13.9216V11.9756C4.51508 11.6499 4.77927 11.3857 5.10497 11.3857V11.3857ZM6.46136 12.5652H5.69458V13.332H6.46136V12.5652ZM8.79117 11.3857H10.7372C11.0629 11.3857 11.3271 11.6499 11.3271 11.9756V13.9216C11.3271 14.2473 11.0629 14.5115 10.7372 14.5115H8.79117C8.46547 14.5115 8.20128 14.2473 8.20128 13.9216V11.9756C8.20128 11.6499 8.46547 11.3857 8.79117 11.3857V11.3857ZM10.1476 12.5652H9.38078V13.332H10.1476V12.5652ZM5.10497 7.61131H7.05125C7.37696 7.61131 7.64086 7.87522 7.64086 8.20092V10.1472C7.64086 10.4729 7.37696 10.7368 7.05125 10.7368H5.10497C4.77927 10.7368 4.51508 10.4729 4.51508 10.1472V8.20092C4.51508 7.87522 4.77927 7.61131 5.10497 7.61131V7.61131ZM6.46136 8.79081H5.69458V9.55731H6.46136V8.79081ZM8.79117 7.61131H10.7372C11.0629 7.61131 11.3271 7.87522 11.3271 8.20092V10.1472C11.3271 10.4729 11.0629 10.7368 10.7372 10.7368H8.79117C8.46547 10.7368 8.20128 10.4729 8.20128 10.1472V8.20092C8.20128 7.87522 8.46547 7.61131 8.79117 7.61131V7.61131ZM10.1476 8.79081H9.38078V9.55731H10.1476V8.79081ZM13.6776 21.0479H20.656V2.95197H13.6776V21.0479V21.0479Z" fill="#324234"/>
</svg>