<svg width="24" height="24" viewBox="0 0 24 24" fill="none" xmlns="http://www.w3.org/2000/svg">
<path d="M3.72301 9.91052L2.59801 9.07802L3.72301 8.22902V9.91052V9.91052ZM9.11101 4.06052H16.413V6.42452C16.413 6.65252 16.5975 6.83552 16.824 6.83552H19.455V10.5135L13.26 15.087L12.9 14.8215C12.867 14.7975 12.834 14.775 12.801 14.7525C12.321 14.457 11.703 14.457 11.2245 14.7525C11.19 14.7735 11.157 14.796 11.1255 14.8215L10.7445 15.1035L4.54951 10.518V4.06052H9.11551H9.11101ZM11.241 2.55902C11.664 2.23802 12.282 2.23802 12.7065 2.55752L13.6185 3.24002H10.3365L11.2395 2.55902H11.241ZM21.4005 9.07802L20.277 9.90752V8.23502L21.4005 9.07802ZM18.807 6.01502H17.235V4.58252L18.807 6.01502ZM13.953 15.597L21.678 9.89402V21.285L13.953 15.597V15.597ZM11.61 15.483C11.7855 15.3555 12.018 15.3225 12.222 15.387C12.291 15.408 12.3555 15.441 12.4125 15.483L20.8275 21.6795H3.19051L11.6055 15.483H11.61ZM2.32201 9.89402L10.0485 15.6105L2.32201 21.2985V9.89402ZM22.5 9.07352C22.5 9.06302 22.5 9.05252 22.4985 9.04052C22.4985 9.03752 22.4985 9.03302 22.497 9.02852C22.494 8.99852 22.4865 8.96852 22.476 8.94152C22.4745 8.93852 22.4745 8.93702 22.473 8.93402C22.47 8.92352 22.464 8.91152 22.4595 8.90102C22.458 8.89652 22.4535 8.89202 22.452 8.88752C22.446 8.87852 22.443 8.86952 22.4385 8.86352C22.4355 8.85902 22.431 8.85302 22.428 8.84702C22.425 8.84102 22.422 8.83952 22.4205 8.83652C22.419 8.83352 22.4145 8.82902 22.4115 8.82602C22.4085 8.82302 22.404 8.81702 22.3995 8.81252C22.392 8.80502 22.386 8.79902 22.3785 8.79152C22.3755 8.78852 22.371 8.78402 22.368 8.78102C22.3575 8.77202 22.3485 8.76302 22.338 8.75702C22.3365 8.75702 22.3365 8.75552 22.335 8.75402L22.3335 8.75252C22.332 8.75252 22.332 8.75102 22.3305 8.75102L20.2755 7.21052V6.42902C20.2755 6.42902 20.2755 6.42902 20.2755 6.42752C20.2755 6.41552 20.2755 6.40052 20.274 6.38852C20.274 6.38552 20.274 6.38102 20.2725 6.37802C20.271 6.36752 20.2695 6.35852 20.2665 6.34802C20.2665 6.34502 20.265 6.34052 20.265 6.33752C20.262 6.32552 20.259 6.31352 20.2545 6.30152C20.2545 6.30002 20.253 6.29852 20.253 6.29402C20.25 6.28352 20.2455 6.27452 20.2425 6.26402C20.241 6.26102 20.2395 6.25652 20.2365 6.25352C20.2305 6.24302 20.2275 6.23402 20.223 6.22502C20.2215 6.22352 20.2215 6.22202 20.22 6.22052C20.2125 6.21002 20.2065 6.19952 20.199 6.18902C20.1975 6.18602 20.196 6.18452 20.193 6.18002C20.187 6.17252 20.181 6.16352 20.175 6.15752C20.1735 6.15452 20.169 6.15302 20.1675 6.14852C20.1585 6.13952 20.151 6.13052 20.1405 6.12152L20.139 6.12002L17.097 3.34502C17.0835 3.33302 17.0685 3.32252 17.055 3.31202C17.052 3.31052 17.0475 3.30752 17.0445 3.30452C17.031 3.29552 17.0145 3.28652 16.9995 3.27752C16.998 3.27602 16.9935 3.27602 16.992 3.27452C16.9785 3.26702 16.9635 3.26252 16.95 3.25652C16.947 3.25502 16.9425 3.25502 16.9395 3.25352C16.923 3.24902 16.9065 3.24452 16.89 3.24152C16.887 3.24152 16.8825 3.24002 16.8795 3.24002C16.866 3.23852 16.8495 3.23702 16.8345 3.23702C16.8315 3.23702 16.827 3.23702 16.824 3.23702C16.821 3.23702 16.821 3.23702 16.818 3.23702H14.9805L13.194 1.89602C12.4815 1.36202 11.451 1.36352 10.74 1.89902L8.96701 3.23552H4.12801C3.90001 3.23552 3.71701 3.42002 3.71701 3.64652V7.19552L1.66201 8.74352C1.66201 8.74352 1.66051 8.74352 1.66051 8.74502L1.65751 8.74802C1.65601 8.74952 1.65451 8.75102 1.65151 8.75252C1.64251 8.76002 1.63351 8.76602 1.62451 8.77502C1.62151 8.77802 1.61701 8.78252 1.61401 8.78552C1.60651 8.79302 1.60051 8.79902 1.59451 8.80652C1.59151 8.81102 1.58551 8.81552 1.58251 8.82002C1.57951 8.82452 1.57651 8.82752 1.57501 8.82902C1.57351 8.83052 1.56901 8.83802 1.56751 8.84102C1.56451 8.84552 1.56001 8.85152 1.55701 8.85752C1.55101 8.86652 1.54651 8.87552 1.54351 8.88152C1.54201 8.88602 1.53751 8.89052 1.53601 8.89502C1.53001 8.90552 1.52551 8.91752 1.52251 8.92802C1.52251 8.92952 1.52101 8.93102 1.52101 8.93552C1.51051 8.96402 1.50301 8.99252 1.50001 9.02252C1.50001 9.02552 1.50001 9.03152 1.49851 9.03452C1.49701 9.04502 1.49701 9.05552 1.49701 9.06602C1.49701 9.06752 1.49701 9.07052 1.49701 9.07352V21.708C1.49701 21.921 1.58551 22.1145 1.73101 22.2555C1.77451 22.3095 1.82851 22.3515 1.89001 22.377C2.01451 22.4505 2.16151 22.4925 2.31901 22.4925H21.675C22.128 22.4925 22.497 22.14 22.497 21.7065V9.07202C22.497 9.07052 22.497 9.06752 22.497 9.06452L22.5 9.07352ZM7.39351 8.29352C7.16551 8.29352 6.98251 8.11052 6.98251 7.88252C6.98251 7.65452 7.16551 7.47152 7.39351 7.47152H16.605C16.833 7.47152 17.016 7.65452 17.016 7.88252C17.016 8.11052 16.8315 8.29352 16.605 8.29352H7.39351ZM7.39351 10.353C7.16551 10.353 6.98251 10.17 6.98251 9.94202C6.98251 9.71402 7.16551 9.53102 7.39351 9.53102H16.605C16.833 9.53102 17.016 9.71402 17.016 9.94202C17.016 10.17 16.8315 10.353 16.605 10.353H7.39351ZM14.8695 11.5905C15.0975 11.5905 15.2805 11.7735 15.2805 12.0015C15.2805 12.2295 15.096 12.4125 14.8695 12.4125H9.12901C8.90101 12.4125 8.71801 12.228 8.71801 12.0015C8.71801 11.775 8.90101 11.5905 9.12901 11.5905H14.8695V11.5905Z" fill="#324234"/>
</svg>