<svg width="20" height="13" viewBox="0 0 20 13" fill="none" xmlns="http://www.w3.org/2000/svg">
<path d="M10.0007 0.25C5.83398 0.25 2.27565 2.84167 0.833984 6.5C2.27565 10.1583 5.83398 12.75 10.0007 12.75C14.1673 12.75 17.7256 10.1583 19.1673 6.5C17.7256 2.84167 14.1673 0.25 10.0007 0.25ZM10.0007 10.6667C7.70065 10.6667 5.83398 8.8 5.83398 6.5C5.83398 4.2 7.70065 2.33333 10.0007 2.33333C12.3006 2.33333 14.1673 4.2 14.1673 6.5C14.1673 8.8 12.3006 10.6667 10.0007 10.6667ZM10.0007 4C8.61732 4 7.50065 5.11667 7.50065 6.5C7.50065 7.88333 8.61732 9 10.0007 9C11.384 9 12.5007 7.88333 12.5007 6.5C12.5007 5.11667 11.384 4 10.0007 4Z" fill="#222222" fill-opacity="0.38"/>
</svg>
