<svg width="56" height="21" viewBox="0 0 56 21" fill="none" xmlns="http://www.w3.org/2000/svg">
<path d="M4.78736 8.46162L6.51724 6.6866L8.24713 8.46162L6.51724 10.2366L4.78736 8.46162ZM13.2457 14.6949C13.2055 16.5318 12.6389 17.9215 11.546 18.8641C10.4531 19.8067 8.89751 20.2779 6.87931 20.2779H6.36638C4.29454 20.2779 2.71552 19.7619 1.62931 18.7299C0.543103 17.7048 0 16.1912 0 14.1892V10.2573H2.5546V14.1789C2.5546 15.3484 2.85967 16.2119 3.46983 16.7692C4.08669 17.3264 5.0522 17.6051 6.36638 17.6051H6.87931C8.20019 17.6051 9.16236 17.3677 9.7658 16.893C10.3693 16.4252 10.671 15.7096 10.671 14.7465V8.30683H13.2457V14.6949Z" fill="#178C5F"/>
<path d="M19.1092 15.6443H18.6466C17.4464 15.6443 16.5311 15.2762 15.9009 14.5401C15.2773 13.797 14.9655 12.7375 14.9655 11.3615V1.88784H17.4397V11.3718C17.4397 11.9498 17.5369 12.3591 17.7313 12.5999C17.9325 12.8407 18.2476 12.9611 18.6767 12.9611H19.1092C19.1829 12.9611 19.2433 13.1056 19.2902 13.3945C19.3372 13.6835 19.3606 13.9621 19.3606 14.2305V14.344C19.3606 14.6261 19.3372 14.915 19.2902 15.2108C19.25 15.4998 19.1897 15.6443 19.1092 15.6443Z" fill="#178C5F"/>
<path d="M21.6135 12.9611C21.694 12.9611 21.7543 13.1056 21.7945 13.3945C21.8415 13.6835 21.8649 13.9621 21.8649 14.2305V14.344C21.8649 14.6261 21.8415 14.915 21.7945 15.2108C21.7543 15.4998 21.694 15.6443 21.6135 15.6443H18.9986C18.9181 15.6443 18.8578 15.4998 18.8175 15.2108C18.7706 14.915 18.7471 14.6261 18.7471 14.344V14.2305C18.7471 13.9621 18.7706 13.6835 18.8175 13.3945C18.8578 13.1056 18.9181 12.9611 18.9986 12.9611H21.6135Z" fill="#178C5F"/>
<path d="M24.1279 12.9611C24.2083 12.9611 24.2687 13.1056 24.3089 13.3945C24.3558 13.6835 24.3793 13.9621 24.3793 14.2305V14.344C24.3793 14.6261 24.3558 14.915 24.3089 15.2108C24.2687 15.4998 24.2083 15.6443 24.1279 15.6443H21.5129C21.4325 15.6443 21.3721 15.4998 21.3319 15.2108C21.285 14.915 21.2615 14.6261 21.2615 14.344V14.2305C21.2615 13.9621 21.285 13.6835 21.3319 13.3945C21.3721 13.1056 21.4325 12.9611 21.5129 12.9611H24.1279Z" fill="#178C5F"/>
<path d="M24.0273 12.9611H26.069C26.6992 12.9611 27.1284 12.8579 27.3563 12.6515C27.5843 12.4451 27.6983 12.022 27.6983 11.3822V7.93531H30.2529V11.3925C30.2529 12.7685 29.8942 13.8211 29.1767 14.5504C28.4593 15.2796 27.42 15.6443 26.0589 15.6443H24.0273C23.9468 15.6443 23.8865 15.4998 23.8463 15.2108C23.7993 14.915 23.7759 14.6261 23.7759 14.344V14.2305C23.7759 13.9621 23.7993 13.6835 23.8463 13.3945C23.8932 13.1056 23.9535 12.9611 24.0273 12.9611ZM24.5603 19.0602L26.2902 17.2852L28.0201 19.0602L26.2902 20.8352L24.5603 19.0602Z" fill="#178C5F"/>
<path d="M40.1595 15.6443H39.1336C39.0397 17.1579 38.4497 18.3378 37.3635 19.184C36.284 20.0371 34.8056 20.4637 32.9282 20.4637H31.7816V17.8218H32.8678C35.1609 17.8218 36.4047 17.096 36.5991 15.6443H35.4023C34.1418 15.6443 33.1762 15.3106 32.5057 14.6433C31.8352 13.969 31.5 12.9989 31.5 11.733C31.5 11.1138 31.5805 10.5428 31.7414 10.0199C31.909 9.49018 32.1504 9.02578 32.4655 8.62674C32.7874 8.22083 33.1964 7.90435 33.6925 7.67731C34.1954 7.45027 34.762 7.33675 35.3922 7.33675C36.5656 7.33675 37.4842 7.72891 38.148 8.51322C38.8118 9.29754 39.1437 10.3398 39.1437 11.6402V12.9611H40.1595C40.2332 12.9611 40.2936 13.1056 40.3405 13.3945C40.3875 13.6835 40.4109 13.9621 40.4109 14.2305V14.344C40.4109 14.6261 40.3875 14.915 40.3405 15.2108C40.3003 15.4998 40.2399 15.6443 40.1595 15.6443ZM33.9842 11.6918C33.9842 12.1458 34.0881 12.4726 34.296 12.6722C34.5105 12.8648 34.876 12.9611 35.3922 12.9611H36.6394V11.6298C36.6394 10.5015 36.2102 9.93737 35.352 9.93737C34.4401 9.93737 33.9842 10.5222 33.9842 11.6918Z" fill="#178C5F"/>
<path d="M47.7529 2.47607L49.3721 0.835205L50.9813 2.47607L49.3721 4.13758L47.7529 2.47607ZM49.5833 5.02509L51.1925 3.36358L52.8118 5.02509L51.1925 6.66596L49.5833 5.02509ZM45.9224 5.02509L47.5417 3.36358L49.1509 5.02509L47.5417 6.66596L45.9224 5.02509ZM40.0589 12.9611H41.0144C41.7184 12.9611 42.2246 12.8338 42.533 12.5793C42.8415 12.3178 42.9957 11.9154 42.9957 11.3718V8.27587H45.5201V8.68866L45.5302 11.3925C45.5369 11.9566 45.6509 12.3591 45.8721 12.5999C46.1001 12.8407 46.4789 12.9611 47.0086 12.9611C47.4981 12.9611 47.8534 12.8407 48.0747 12.5999C48.3027 12.3522 48.4167 11.9463 48.4167 11.3822L48.4267 8.68866V8.27587H50.9411V8.68866L50.9511 11.3615C50.9579 11.9394 51.0718 12.3488 51.2931 12.5896C51.5144 12.8304 51.8731 12.9508 52.3693 12.9508C52.7447 12.9508 53.0163 12.8373 53.1839 12.6102C53.3515 12.3832 53.4353 11.9807 53.4353 11.4028V7.94563H56V11.4854C56 12.7719 55.6849 13.7867 55.0546 14.5297C54.4243 15.2728 53.5493 15.6443 52.4296 15.6443C51.2696 15.6443 50.3745 15.259 49.7443 14.4885C49.1073 15.259 48.182 15.6443 46.9684 15.6443C45.8487 15.6443 44.9569 15.2487 44.2931 14.4575C43.5757 15.2487 42.4794 15.6443 41.0043 15.6443H40.0589C39.9784 15.6443 39.9181 15.4998 39.8779 15.2108C39.8309 14.915 39.8075 14.6261 39.8075 14.344V14.2305C39.8075 13.9621 39.8309 13.6835 39.8779 13.3945C39.9248 13.1056 39.9852 12.9611 40.0589 12.9611Z" fill="#178C5F"/>
</svg>
